<svg width="427" height="427" viewBox="0 0 427 427" fill="none" xmlns="http://www.w3.org/2000/svg">
<g clip-path="url(#clip0_1058_18)">
<path d="M320.167 426.904C341.281 426.904 361.92 420.644 379.475 408.914C397.03 397.184 410.712 380.512 418.792 361.005C426.871 341.499 428.986 320.036 424.867 299.328C420.748 278.62 410.581 259.599 395.651 244.67C380.722 229.741 361.701 219.574 340.993 215.455C320.286 211.336 298.822 213.45 279.316 221.53C259.809 229.609 243.138 243.292 231.408 260.847C219.678 278.402 213.417 299.041 213.417 320.154C213.417 348.466 224.664 375.618 244.683 395.638C264.703 415.658 291.855 426.904 320.167 426.904ZM320.167 266.807C330.725 266.804 341.045 269.932 349.825 275.795C358.604 281.659 365.448 289.994 369.49 299.746C373.532 309.499 374.59 320.232 372.533 330.586C370.475 340.941 365.392 350.453 357.928 357.919C350.464 365.385 340.954 370.47 330.6 372.53C320.245 374.591 309.512 373.535 299.758 369.495C290.005 365.456 281.668 358.615 275.802 349.837C269.937 341.059 266.806 330.739 266.806 320.182C266.806 306.028 272.427 292.454 282.434 282.445C292.441 272.435 306.014 266.81 320.167 266.807Z" fill="#FDBE17"/>
<path d="M320.167 213.445C341.281 213.445 361.92 207.185 379.475 195.455C397.03 183.725 410.712 167.053 418.792 147.546C426.871 128.04 428.986 106.577 424.867 85.869C420.748 65.1615 410.581 46.1403 395.651 31.211C380.722 16.2817 361.701 6.11476 340.993 1.99577C320.286 -2.12321 298.822 -0.00907085 279.316 8.07061C259.809 16.1503 243.138 29.8328 231.408 47.3878C219.678 64.9428 213.417 85.5818 213.417 106.695C213.417 120.714 216.178 134.595 221.543 147.546C226.908 160.498 234.771 172.266 244.683 182.179C254.596 192.092 266.364 199.955 279.316 205.319C292.267 210.684 306.149 213.445 320.167 213.445ZM320.167 53.3615C330.721 53.3615 341.038 56.4912 349.813 62.3546C358.588 68.218 365.428 76.5518 369.467 86.3023C373.505 96.0528 374.562 106.782 372.503 117.133C370.444 127.484 365.363 136.992 357.9 144.455C350.437 151.918 340.929 157 330.578 159.059C320.227 161.118 309.497 160.061 299.747 156.022C289.996 151.983 281.662 145.144 275.799 136.369C269.935 127.593 266.806 117.277 266.806 106.723C266.81 92.5716 272.433 79.001 282.44 68.9947C292.446 58.9883 306.016 53.3651 320.167 53.3615Z" fill="#FDBE17"/>
<path d="M106.723 426.904C127.836 426.904 148.475 420.644 166.03 408.914C183.585 397.184 197.268 380.512 205.347 361.005C213.427 341.499 215.541 320.036 211.422 299.328C207.303 278.62 197.136 259.599 182.207 244.67C167.278 229.741 148.257 219.574 127.549 215.455C106.841 211.336 85.3773 213.45 65.8712 221.53C46.3651 229.609 29.6935 243.292 17.9636 260.847C6.23375 278.402 -0.0273438 299.041 -0.0273438 320.154C-0.0273438 348.466 11.2195 375.618 31.239 395.638C51.2586 415.658 78.4111 426.904 106.723 426.904ZM106.723 266.807C117.28 266.804 127.601 269.932 136.38 275.795C145.16 281.659 152.003 289.994 156.045 299.746C160.087 309.499 161.146 320.232 159.088 330.586C157.03 340.941 151.948 350.453 144.484 357.919C137.02 365.385 127.509 370.47 117.155 372.53C106.8 374.591 96.0679 373.535 86.314 369.495C76.5602 365.456 68.2234 358.615 62.3579 349.837C56.4923 341.059 53.3614 330.739 53.3614 320.182C53.3614 306.028 58.983 292.454 68.9898 282.445C78.9966 272.435 92.5694 266.81 106.723 266.807Z" fill="#FDBE17"/>
<path d="M106.723 213.445C127.836 213.445 148.475 207.185 166.03 195.455C183.585 183.725 197.268 167.053 205.347 147.546C213.427 128.04 215.541 106.577 211.422 85.869C207.303 65.1615 197.136 46.1403 182.207 31.211C167.278 16.2817 148.257 6.11476 127.549 1.99577C106.841 -2.12321 85.3773 -0.00907085 65.8712 8.07061C46.3651 16.1503 29.6935 29.8328 17.9636 47.3878C6.23375 64.9428 -0.0273438 85.5818 -0.0273438 106.695C-0.0273438 120.714 2.73391 134.595 8.09861 147.546C13.4633 160.498 21.3264 172.266 31.239 182.179C41.1517 192.092 52.9196 199.955 65.8712 205.319C78.8227 210.684 92.7043 213.445 106.723 213.445ZM106.723 53.3615C117.277 53.3615 127.594 56.4912 136.369 62.3546C145.144 68.218 151.984 76.5518 156.022 86.3023C160.061 96.0528 161.118 106.782 159.059 117.133C157 127.484 151.918 136.992 144.455 144.455C136.992 151.918 127.484 157 117.133 159.059C106.782 161.118 96.053 160.061 86.3025 156.022C76.552 151.983 68.2179 145.144 62.3545 136.369C56.4911 127.593 53.3614 117.277 53.3614 106.723C53.3614 92.5705 58.984 78.9978 68.9912 68.9906C78.9984 58.9834 92.5707 53.3615 106.723 53.3615Z" fill="#FDBE17"/>
</g>
<defs>
<clipPath id="clip0_1058_18">
<rect width="426.904" height="426.904" fill="white"/>
</clipPath>
</defs>
</svg>
