<svg width="691" height="124" viewBox="0 0 691 124" fill="none" xmlns="http://www.w3.org/2000/svg">
<path d="M240.845 24.0771C242.164 23.5568 243.373 22.7477 244.398 21.6991C245.418 20.6342 246.225 19.3482 246.767 17.9227C247.364 16.3313 247.658 14.6225 247.631 12.9017C247.658 11.179 247.363 9.46857 246.767 7.87477C246.225 6.4508 245.418 5.16659 244.398 4.10442C243.374 3.0537 242.165 2.24448 240.845 1.72652C239.443 1.17068 237.962 0.891156 236.472 0.900944C234.979 0.891205 233.497 1.17072 232.093 1.72652C230.775 2.24445 229.567 3.05372 228.545 4.10442C227.522 5.16371 226.715 6.44868 226.176 7.87477C225.578 9.46813 225.282 11.1786 225.306 12.9017C225.281 14.623 225.577 16.3317 226.176 17.9227C226.715 19.3506 227.522 20.6375 228.545 21.6991C229.569 22.7477 230.776 23.5568 232.093 24.0771C233.497 24.631 234.98 24.9082 236.472 24.8964C237.962 24.9081 239.442 24.6309 240.845 24.0771Z" fill="black"/>
<path d="M97.8621 114.718C92.8435 108.857 90.3342 99.3202 90.3342 86.1078V24.5389L55.6253 115.672H50.399L7.92081 21.0766V115.691H0V0.900696H19.3333L57.6855 86.2988L90.177 0.900696H110.947V86.1263C110.947 97.0264 111.793 105.035 113.485 110.153C115.176 115.27 118.189 118.287 122.523 119.202V123.552C111.105 123.519 102.884 120.574 97.8621 114.718Z" fill="black"/>
<path d="M143.864 109.8C139.111 104.707 136.735 96.5917 136.735 85.4533V56.5788C136.735 50.6646 135.986 46.2885 134.489 43.4505C132.992 40.6125 130.034 39.1914 125.614 39.1873H124.025V33.9693H143.044C146.85 33.9693 149.756 34.6655 151.762 36.0578C153.766 37.444 155.192 39.7541 156.04 42.9268C156.887 46.0995 157.308 50.6646 157.308 56.5788V85.6259C157.308 94.3246 158.418 100.498 160.637 104.145C162.857 107.792 166.238 109.619 170.781 109.627C174.688 109.627 178.227 107.779 181.396 104.083C182.849 102.365 184.077 100.435 185.045 98.3474V33.994H205.647V115.739H192.175L186.628 107.915H185.871C184.294 109.744 182.539 111.378 180.639 112.788C176.623 115.909 171.758 117.472 166.043 117.476C156.006 117.439 148.613 114.88 143.864 109.8Z" fill="black"/>
<path d="M227.741 56.5786C227.741 50.6645 226.992 46.2883 225.495 43.4504C223.998 40.6124 221.042 39.1914 216.626 39.1873H215.037V33.9693H234.056C237.862 33.9693 240.768 34.6654 242.774 36.0577C244.778 37.4438 246.204 39.754 247.052 42.9267C247.899 46.0994 248.32 50.6645 248.32 56.5786V115.72H227.718L227.741 56.5786Z" fill="black"/>
<path d="M333.948 8.71227H322.72C316.8 8.71227 312.283 10.3367 309.169 13.5854C306.055 16.8341 304.497 22.1732 304.493 29.6029H299.738V14.8175C299.738 5.53967 304.229 0.900696 313.211 0.900696H387.698V8.72461H354.578V115.691H333.948V8.71227Z" fill="black"/>
<path d="M404.483 23.51C404.483 17.5958 403.734 13.2199 402.237 10.3819C400.74 7.54394 397.782 6.1228 393.362 6.11869H391.773V0.900696H410.792C414.598 0.900696 417.504 1.59693 419.51 2.98922C421.516 4.38151 422.942 6.67113 423.788 9.85821C424.637 13.0412 425.06 17.5917 425.056 23.51V38.8129C426.621 37.5838 428.265 36.4802 429.974 35.5108C433.869 33.3958 438.147 32.2675 442.492 32.2088C451.055 32.2088 458.214 34.6135 463.97 39.4228C469.726 44.2322 472.604 52.4463 472.604 64.0652V115.716H452.03V64.9338C452.03 56.58 450.683 50.4914 447.988 46.6677C445.294 42.844 441.886 40.9301 437.766 40.926C434.914 40.926 431.903 41.9692 428.733 44.0556C427.428 44.9011 426.205 45.892 425.085 47.0127V115.716H404.483V23.51Z" fill="black"/>
<path d="M581.297 56.5531C581.297 50.6389 580.584 46.2628 579.159 43.4249C577.733 40.5869 574.801 39.1659 570.362 39.1618H568.773V33.9438H584.492C591.359 33.9438 595.85 36.1472 597.964 40.5541H598.598C604.069 35.1289 611.193 32.1505 618.566 32.2065C623.742 32.2065 628.259 33.2804 632.117 35.4284C635.976 37.5764 638.749 39.8046 640.437 42.1127C642.993 39.0884 646.061 36.6381 649.469 34.8986C652.961 33.1079 657.452 32.2106 662.942 32.2065C681.433 32.2065 690.678 42.8724 690.678 64.2045V115.689H670.077V64.0381C670.077 56.0335 668.915 50.1768 666.591 46.4682C664.267 42.7595 661.201 40.9113 657.395 40.9236C654.662 40.9014 651.958 41.5321 649.469 42.7718C647.234 43.8213 645.274 45.4667 643.766 47.5586C644.246 48.8077 644.67 50.0824 645.034 51.3781C645.957 55.5907 646.384 59.9159 646.303 64.2477V115.732H625.701V64.0813C625.701 56.0767 624.539 50.22 622.215 46.5113C619.891 42.8026 616.826 40.9545 613.02 40.9668C610.59 41.0324 608.216 41.7835 606.126 43.1477C604.065 44.3052 602.253 45.9356 600.816 47.9283L601.293 50.3925C601.716 51.7848 601.927 54.0437 601.927 57.1692V115.781H581.325L581.297 56.5531Z" fill="black"/>
<path d="M555.296 18.482C556.338 18.0649 557.292 17.4216 558.103 16.5906C558.917 15.7412 559.561 14.7154 559.994 13.5782C560.468 12.3062 560.701 10.9416 560.679 9.56761C560.701 8.19559 560.468 6.83303 559.994 5.56323C559.561 4.42596 558.917 3.39998 558.103 2.55062C557.292 1.7196 556.338 1.07646 555.296 0.659425C554.178 0.215571 552.998 -0.0076449 551.81 0.000199802C550.62 -0.00746481 549.437 0.215734 548.318 0.659425C547.276 1.07585 546.321 1.71906 545.511 2.55062C544.695 3.39832 544.051 4.42474 543.619 5.56323C543.143 6.83259 542.909 8.19517 542.929 9.56761C542.909 10.942 543.144 12.3066 543.619 13.5782C544.051 14.7166 544.695 15.7429 545.511 16.5906C546.321 17.4222 547.276 18.0655 548.318 18.482C549.437 18.9256 550.62 19.1488 551.81 19.1412C552.998 19.149 554.178 18.9258 555.296 18.482Z" fill="black"/>
<path d="M534.689 15.4534V0.292297H519.145V15.4534C510.786 18.2195 509.748 19.4086 509.652 25.255H544.182C544.086 19.4086 543.042 18.2195 534.689 15.4534Z" fill="black"/>
<path d="M543.591 32.2538H508.966C503.709 32.2538 498.668 34.5457 494.95 38.6251C491.233 42.7046 489.145 48.2375 489.145 54.0068V95.7201C489.145 101.489 491.233 107.022 494.95 111.102C498.668 115.181 503.709 117.473 508.966 117.473H543.591C548.848 117.473 553.89 115.181 557.607 111.102C561.324 107.022 563.413 101.489 563.413 95.7201V54.0068C563.413 48.2375 561.324 42.7046 557.607 38.6251C553.89 34.5457 548.848 32.2538 543.591 32.2538ZM542.676 92.7816C542.709 95.1518 542.301 97.5045 541.478 99.696C540.655 101.888 539.433 103.872 537.888 105.528C536.384 107.229 534.579 108.573 532.583 109.478C530.587 110.383 528.443 110.829 526.284 110.789C524.124 110.829 521.98 110.383 519.983 109.478C517.986 108.573 516.18 107.229 514.675 105.528C513.126 103.877 511.901 101.896 511.077 99.7055C510.252 97.5154 509.845 95.1631 509.881 92.7938C509.881 92.763 509.881 92.7384 509.881 92.7138V55.8181H509.937C510.19 51.4654 511.93 47.3776 514.81 44.3717C518.1 40.7985 521.924 39.012 526.284 39.012C528.443 38.9717 530.587 39.4177 532.583 40.3226C534.579 41.2275 536.384 42.5721 537.888 44.2732C540.705 47.2771 542.395 51.3299 542.625 55.6332H542.682L542.676 92.7816Z" fill="black"/>
</svg>
