<svg width="457" height="122" viewBox="0 0 457 122" fill="none" xmlns="http://www.w3.org/2000/svg">
<path d="M450.032 23.31C450.909 22.9903 451.712 22.4972 452.394 21.8601C453.079 21.209 453.621 20.4225 453.985 19.5507C454.384 18.5756 454.58 17.5294 454.562 16.4761C454.58 15.4243 454.384 14.3797 453.985 13.4063C453.621 12.5344 453.079 11.7479 452.394 11.0967C451.712 10.4596 450.909 9.9666 450.032 9.64689C449.092 9.30662 448.099 9.1355 447.1 9.14151C446.098 9.13563 445.104 9.30674 444.162 9.64689C443.285 9.96613 442.482 10.4592 441.8 11.0967C441.114 11.7466 440.572 12.5335 440.209 13.4063C439.808 14.3794 439.611 15.424 439.628 16.4761C439.611 17.5298 439.808 18.5759 440.209 19.5507C440.572 20.4235 441.114 21.2102 441.8 21.8601C442.482 22.4976 443.285 22.9908 444.162 23.31C445.104 23.6502 446.098 23.8213 447.1 23.8154C448.099 23.8214 449.092 23.6503 450.032 23.31Z" fill="black"/>
<path d="M432.679 21.001V9.37817H419.602V21.001C412.569 23.1216 411.696 24.0332 411.615 28.5151H440.665C440.585 24.0332 439.707 23.1216 432.679 21.001Z" fill="black"/>
<path d="M440.149 33.8466H411.018C406.595 33.8466 402.354 35.6035 399.226 38.7309C396.099 41.8584 394.342 46.1 394.342 50.5228V82.5012C394.342 86.924 396.099 91.1658 399.226 94.2932C402.354 97.4206 406.595 99.1776 411.018 99.1776H440.149C444.572 99.1776 448.813 97.4206 451.941 94.2932C455.068 91.1658 456.825 86.924 456.825 82.5012V50.5228C456.825 46.1 455.068 41.8584 451.941 38.7309C448.813 35.6035 444.572 33.8466 440.149 33.8466ZM439.379 80.2485C439.407 82.0655 439.064 83.8692 438.371 85.5492C437.679 87.2293 436.651 88.7505 435.35 90.02C434.085 91.3241 432.566 92.3547 430.887 93.0485C429.208 93.7422 427.405 94.0843 425.588 94.0533C423.771 94.0841 421.967 93.7419 420.287 93.0482C418.607 92.3545 417.087 91.324 415.821 90.02C414.518 88.7546 413.488 87.2355 412.794 85.5565C412.1 83.8775 411.758 82.0742 411.788 80.2578C411.788 80.2342 411.788 80.2154 411.788 80.1965V51.9114H411.835C412.048 48.5745 413.512 45.4408 415.935 43.1364C418.702 40.3971 421.92 39.0275 425.588 39.0275C427.405 38.9966 429.208 39.3385 430.887 40.0323C432.566 40.726 434.085 41.7568 435.35 43.0608C437.721 45.3637 439.143 48.4707 439.336 51.7697H439.384L439.379 80.2485Z" fill="black"/>
<path d="M194.836 72.4628C192.136 78.2201 191.133 84.6273 191.942 90.9343C192.752 97.2414 195.341 103.187 199.407 108.076H251.673C255.739 103.188 258.329 97.2418 259.139 90.9347C259.949 84.6276 258.945 78.2203 256.246 72.4628H194.836Z" stroke="#FF77C5" stroke-width="6.32" stroke-linecap="round" stroke-linejoin="round"/>
<path d="M205.225 46.8088V30.1876H245.857V46.8088" stroke="#FF77C5" stroke-width="6.32" stroke-linecap="round" stroke-linejoin="round"/>
<path d="M236.233 9.49316H214.844V30.1871H236.233V9.49316Z" stroke="#FF77C5" stroke-width="6.32" stroke-linecap="round" stroke-linejoin="round"/>
<path d="M236.832 19.8605H253.423" stroke="#FF77C5" stroke-width="6.32" stroke-linecap="round" stroke-linejoin="round"/>
<path d="M270.178 36.0393C279.156 36.0393 286.434 28.7958 286.434 19.8604C286.434 10.9251 279.156 3.68164 270.178 3.68164C261.2 3.68164 253.922 10.9251 253.922 19.8604C253.922 28.7958 261.2 36.0393 270.178 36.0393Z" stroke="#FF77C5" stroke-width="6.32" stroke-linecap="round" stroke-linejoin="round"/>
<path d="M270.182 86.6519C270.182 62.1168 250.198 42.2257 225.545 42.2257C200.893 42.2257 180.906 62.1215 180.906 86.6519C180.901 92.68 182.129 98.6454 184.514 104.181C186.899 109.717 190.392 114.707 194.777 118.843H256.304C260.69 114.707 264.184 109.718 266.571 104.182C268.957 98.646 270.186 92.6804 270.182 86.6519Z" stroke="#FF77C5" stroke-width="6.32" stroke-linecap="round" stroke-linejoin="round"/>
<path d="M215.525 19.8605H220.31" stroke="#FF77C5" stroke-width="6.32" stroke-linecap="round" stroke-linejoin="round"/>
<path d="M225.539 42.7618V91.8062" stroke="#FF77C5" stroke-width="6.32" stroke-linecap="round" stroke-linejoin="round"/>
<path d="M45.8069 33.8467H16.6764C12.2536 33.8467 8.01188 35.6036 4.88445 38.7311C1.75702 41.8585 0 46.1001 0 50.523V82.5013C0 86.9241 1.75702 91.1659 4.88445 94.2933C8.01188 97.4207 12.2536 99.1777 16.6764 99.1777H45.8069C50.2298 99.1777 54.4715 97.4207 57.5989 94.2933C60.7264 91.1659 62.4833 86.9241 62.4833 82.5013V50.523C62.4833 46.1001 60.7264 41.8585 57.5989 38.7311C54.4715 35.6036 50.2298 33.8467 45.8069 33.8467ZM45.0371 80.2486C45.0649 82.0657 44.722 83.8693 44.0294 85.5494C43.3367 87.2294 42.3089 88.7507 41.0085 90.0201C39.7436 91.3242 38.2246 92.3549 36.5455 93.0486C34.8664 93.7423 33.0629 94.0844 31.2464 94.0535C29.4292 94.0842 27.625 93.7421 25.9452 93.0484C24.2653 92.3547 22.7456 91.3241 21.4796 90.0201C20.1762 88.7547 19.1459 87.2356 18.4522 85.5566C17.7585 83.8777 17.4162 82.0743 17.4462 80.258C17.4462 80.2343 17.4462 80.2155 17.4462 80.1966V51.9116H17.4935C17.7061 48.5747 19.1702 45.4409 21.5929 43.1365C24.3605 40.3972 27.5783 39.0276 31.2464 39.0276C33.0629 38.9967 34.8664 39.3387 36.5455 40.0324C38.2246 40.7261 39.7436 41.7569 41.0085 43.061C43.3788 45.3639 44.8008 48.4708 44.9946 51.7698H45.0418L45.0371 80.2486Z" fill="black"/>
<path d="M119.934 94.3433V72.4002H97.5868V67.4453H119.934V45.5023H125.395V67.4453H147.843V72.4002H125.395V94.3433H119.934Z" fill="black"/>
<path d="M312.878 61.9849V57.1311H363.134V61.9849H312.878ZM312.878 80.4898V75.6361H363.134V80.4898H312.878Z" fill="black"/>
</svg>
